<svg width="185" height="185" viewBox="0 0 185 185" fill="none" xmlns="http://www.w3.org/2000/svg">
    <path d="M0 0H184.03V184.03H0V0Z" fill="#171717" />
    <path
        d="M89.1234 159H37.6264V25.16H88.6006C102.368 25.16 114.262 27.8394 124.283 33.1982C134.347 38.5135 142.102 46.1814 147.548 56.202C153.037 66.179 155.782 78.1383 155.782 92.08C155.782 106.022 153.059 118.003 147.613 128.023C142.167 138 134.456 145.668 124.479 151.027C114.502 156.342 102.717 159 89.1234 159ZM73.9619 128.154H87.8164C94.4387 128.154 100.081 127.087 104.742 124.952C109.448 122.817 113.02 119.136 115.46 113.907C117.943 108.679 119.185 101.403 119.185 92.08C119.185 82.7565 117.922 75.4807 115.395 70.2526C112.911 65.0244 109.252 61.343 104.416 59.2082C99.6233 57.0733 93.7416 56.0059 86.7708 56.0059H73.9619V128.154Z"
        fill="#FAFAFA" />
    <path d="M37 56H74V76H37V56Z" fill="#171717" />
</svg>